<svg width="554" height="661" viewBox="0 0 554 661" fill="none" xmlns="http://www.w3.org/2000/svg">
<path d="M109.441 614.569C109.441 614.569 197.843 719.038 395.17 614.569C543.717 535.981 499.358 458.339 489.887 431.512C489.887 431.512 463.05 381.96 503.463 345.507C541.981 310.789 582.078 253.189 526.984 177.915C494.78 133.728 433.846 143.355 402.747 132.624C402.747 132.624 353.968 119.368 301.558 52.7728C249.148 -13.8222 126.49 -11.1395 72.6594 26.261C22.9331 60.821 -36.2648 137.673 6.98913 232.99C42.5079 311.105 94.9178 308.58 65.5556 442.243C41.5607 551.446 109.441 614.569 109.441 614.569Z" fill="#F2F7FB"/>
</svg>
